<?xml version="1.0" encoding="UTF-8" standalone="no"?>
<!-- Created with Inkscape (http://www.inkscape.org/) -->

<svg
   xmlns:dc="http://purl.org/dc/elements/1.1/"
   xmlns:cc="http://creativecommons.org/ns#"
   xmlns:rdf="http://www.w3.org/1999/02/22-rdf-syntax-ns#"
   xmlns:svg="http://www.w3.org/2000/svg"
   xmlns="http://www.w3.org/2000/svg"
   xmlns:sodipodi="http://sodipodi.sourceforge.net/DTD/sodipodi-0.dtd"
   xmlns:inkscape="http://www.inkscape.org/namespaces/inkscape"
   width="744.09448819"
   height="1052.3622047"
   id="svg2"
   version="1.1"
   inkscape:version="0.48.4 r9939"
   sodipodi:docname="herna_mapa.eps">
  <defs
     id="defs4" />
  <sodipodi:namedview
     id="base"
     pagecolor="#ffffff"
     bordercolor="#666666"
     borderopacity="1.0"
     inkscape:pageopacity="0.0"
     inkscape:pageshadow="2"
     inkscape:zoom="1.4"
     inkscape:cx="45.583306"
     inkscape:cy="386.2863"
     inkscape:document-units="px"
     inkscape:current-layer="layer1"
     showgrid="false"
     inkscape:window-width="1920"
     inkscape:window-height="1005"
     inkscape:window-x="-9"
     inkscape:window-y="-9"
     inkscape:window-maximized="1" />
  <metadata
     id="metadata7">
    <rdf:RDF>
      <cc:Work
         rdf:about="">
        <dc:format>image/svg+xml</dc:format>
        <dc:type
           rdf:resource="http://purl.org/dc/dcmitype/StillImage" />
        <dc:title></dc:title>
      </cc:Work>
    </rdf:RDF>
  </metadata>
  <g
     inkscape:label="Layer 1"
     inkscape:groupmode="layer"
     id="layer1">
    <path
       sodipodi:type="arc"
       style="fill:#feff00;fill-opacity:1;stroke:#000000;stroke-opacity:1"
       id="path2985"
       sodipodi:cx="65.659912"
       sodipodi:cy="91.707115"
       sodipodi:rx="36.36549"
       sodipodi:ry="36.36549"
       d="m 102.0254,91.707115 a 36.36549,36.36549 0 1 1 -1.2e-4,-0.09398"
       sodipodi:start="0"
       sodipodi:end="6.2806011"
       sodipodi:open="true"
       transform="translate(21.205578,-18.264109)" />
    <path
       transform="translate(171.20558,-18.264109)"
       sodipodi:type="arc"
       style="fill:#feff00;fill-opacity:1;stroke:#000000;stroke-opacity:1"
       id="path2985-1"
       sodipodi:cx="65.659912"
       sodipodi:cy="91.707115"
       sodipodi:rx="36.36549"
       sodipodi:ry="36.36549"
       d="m 102.0254,91.707115 a 36.36549,36.36549 0 1 1 -1.2e-4,-0.09398"
       sodipodi:start="0"
       sodipodi:end="6.2806011"
       sodipodi:open="true" />
    <path
       sodipodi:type="arc"
       style="fill:#feff00;fill-opacity:1;stroke:#000000;stroke-opacity:1"
       id="path2985-0"
       sodipodi:cx="65.659912"
       sodipodi:cy="91.707115"
       sodipodi:rx="36.36549"
       sodipodi:ry="36.36549"
       d="m 102.0254,91.707115 a 36.36549,36.36549 0 1 1 -1.2e-4,-0.09398"
       sodipodi:start="0"
       sodipodi:end="6.2806011"
       sodipodi:open="true"
       transform="translate(21.205578,131.7359)" />
    <path
       transform="translate(171.20558,131.7359)"
       sodipodi:type="arc"
       style="fill:#feff00;fill-opacity:1;stroke:#000000;stroke-opacity:1"
       id="path2985-1-9"
       sodipodi:cx="65.659912"
       sodipodi:cy="91.707115"
       sodipodi:rx="36.36549"
       sodipodi:ry="36.36549"
       d="m 102.0254,91.707115 a 36.36549,36.36549 0 1 1 -1.2e-4,-0.09398"
       sodipodi:start="0"
       sodipodi:end="6.2806011"
       sodipodi:open="true" />
    <path
       style="fill:none;stroke:#000000;stroke-width:1px;stroke-linecap:butt;stroke-linejoin:miter;stroke-opacity:1"
       d="m 122.5,74.951354 c 77.85714,0 77.85714,0 77.85714,0"
       id="path3812"
       inkscape:connector-curvature="0" />
    <path
       style="fill:none;stroke:#000000;stroke-width:1px;stroke-linecap:butt;stroke-linejoin:miter;stroke-opacity:1"
       d="m 85.357147,110.3085 c 0,77.14286 -0.35715,77.14286 -0.35715,77.14286"
       id="path3814"
       inkscape:connector-curvature="0" />
    <path
       style="fill:none;stroke:#000000;stroke-width:1px;stroke-linecap:butt;stroke-linejoin:miter;stroke-opacity:1"
       d="m 122.85714,225.66564 c 76.78572,0 76.78572,-0.35714 76.78572,-0.35714"
       id="path3816"
       inkscape:connector-curvature="0" />
    <path
       style="fill:none;stroke:#000000;stroke-width:1px;stroke-linecap:butt;stroke-linejoin:miter;stroke-opacity:1"
       d="m 239.64286,186.73707 c 0,-76.78571 0,-76.78571 0,-76.78571"
       id="path3818"
       inkscape:connector-curvature="0" />
    <path
       style="fill:none;stroke:#000000;stroke-width:1px;stroke-linecap:butt;stroke-linejoin:miter;stroke-opacity:1"
       d="m 112.5,98.879924 c 98.57143,98.571436 98.92857,98.214296 98.92857,98.214296"
       id="path3820"
       inkscape:connector-curvature="0" />
    <path
       style="fill:none;stroke:#000000;stroke-width:1px;stroke-linecap:butt;stroke-linejoin:miter;stroke-opacity:1"
       d="M 211.07143,98.879924 C 112.5,197.45136 112.5,197.45136 112.5,197.45136"
       id="path3822"
       inkscape:connector-curvature="0" />
    <path
       sodipodi:type="arc"
       style="fill:#feff00;fill-opacity:1;stroke:#000000;stroke-opacity:1"
       id="path2985-3"
       sodipodi:cx="65.659912"
       sodipodi:cy="91.707115"
       sodipodi:rx="36.36549"
       sodipodi:ry="36.36549"
       d="m 102.0254,91.707115 a 36.36549,36.36549 0 1 1 -1.2e-4,-0.09398"
       sodipodi:start="0"
       sodipodi:end="6.2806011"
       sodipodi:open="true"
       transform="translate(321.74129,-18.264121)" />
    <path
       transform="translate(471.74129,-18.264121)"
       sodipodi:type="arc"
       style="fill:#feff00;fill-opacity:1;stroke:#000000;stroke-opacity:1"
       id="path2985-1-1"
       sodipodi:cx="65.659912"
       sodipodi:cy="91.707115"
       sodipodi:rx="36.36549"
       sodipodi:ry="36.36549"
       d="m 102.0254,91.707115 a 36.36549,36.36549 0 1 1 -1.2e-4,-0.09398"
       sodipodi:start="0"
       sodipodi:end="6.2806011"
       sodipodi:open="true" />
    <path
       sodipodi:type="arc"
       style="fill:#feff00;fill-opacity:1;stroke:#000000;stroke-opacity:1"
       id="path2985-0-9"
       sodipodi:cx="65.659912"
       sodipodi:cy="91.707115"
       sodipodi:rx="36.36549"
       sodipodi:ry="36.36549"
       d="m 102.0254,91.707115 a 36.36549,36.36549 0 1 1 -1.2e-4,-0.09398"
       sodipodi:start="0"
       sodipodi:end="6.2806011"
       sodipodi:open="true"
       transform="translate(321.74129,131.7359)" />
    <path
       transform="translate(471.74129,131.7359)"
       sodipodi:type="arc"
       style="fill:#feff00;fill-opacity:1;stroke:#000000;stroke-opacity:1"
       id="path2985-1-9-8"
       sodipodi:cx="65.659912"
       sodipodi:cy="91.707115"
       sodipodi:rx="36.36549"
       sodipodi:ry="36.36549"
       d="m 102.0254,91.707115 a 36.36549,36.36549 0 1 1 -1.2e-4,-0.09398"
       sodipodi:start="0"
       sodipodi:end="6.2806011"
       sodipodi:open="true" />
    <path
       style="fill:none;stroke:#000000;stroke-width:1px;stroke-linecap:butt;stroke-linejoin:miter;stroke-opacity:1"
       d="m 423.03571,74.951354 c 77.85714,0 77.85714,0 77.85714,0"
       id="path3812-6"
       inkscape:connector-curvature="0" />
    <path
       style="fill:none;stroke:#000000;stroke-width:1px;stroke-linecap:butt;stroke-linejoin:miter;stroke-opacity:1"
       d="m 385.89286,110.3085 c 0,77.14286 -0.35715,77.14286 -0.35715,77.14286"
       id="path3814-5"
       inkscape:connector-curvature="0" />
    <path
       style="fill:none;stroke:#000000;stroke-width:1px;stroke-linecap:butt;stroke-linejoin:miter;stroke-opacity:1"
       d="m 423.39285,225.66564 c 76.78572,0 76.78572,-0.35714 76.78572,-0.35714"
       id="path3816-0"
       inkscape:connector-curvature="0" />
    <path
       style="fill:none;stroke:#000000;stroke-width:1px;stroke-linecap:butt;stroke-linejoin:miter;stroke-opacity:1"
       d="m 540.17857,186.73707 c 0,-76.78571 0,-76.78571 0,-76.78571"
       id="path3818-2"
       inkscape:connector-curvature="0" />
    <path
       style="fill:none;stroke:#000000;stroke-width:1px;stroke-linecap:butt;stroke-linejoin:miter;stroke-opacity:1"
       d="m 413.39285,98.879924 c 98.57143,98.571436 98.92857,98.214296 98.92857,98.214296"
       id="path3820-8"
       inkscape:connector-curvature="0" />
    <path
       style="fill:none;stroke:#000000;stroke-width:1px;stroke-linecap:butt;stroke-linejoin:miter;stroke-opacity:1"
       d="M 511.60714,98.879924 C 413.03571,197.45136 413.03571,197.45136 413.03571,197.45136"
       id="path3822-6"
       inkscape:connector-curvature="0" />
    <path
       style="fill:none;stroke:#000000;stroke-width:1px;stroke-linecap:butt;stroke-linejoin:miter;stroke-opacity:1"
       d="m 273.46111,74.951494 c 77.85714,0 77.85714,0 77.85714,0"
       id="path3812-0"
       inkscape:connector-curvature="0" />
    <path
       style="fill:none;stroke:#000000;stroke-width:1px;stroke-linecap:butt;stroke-linejoin:miter;stroke-opacity:1"
       d="m 272.85714,225.6655 c 77.85714,0 77.85714,0 77.85714,0"
       id="path3812-0-2"
       inkscape:connector-curvature="0" />
    <path
       style="fill:none;stroke:#000000;stroke-width:1px;stroke-linecap:butt;stroke-linejoin:miter;stroke-opacity:1"
       d="m 261.60714,98.880184 c 98.57143,98.571436 98.92857,98.214296 98.92857,98.214296"
       id="path3820-4"
       inkscape:connector-curvature="0" />
    <path
       style="fill:none;stroke:#000000;stroke-width:1px;stroke-linecap:butt;stroke-linejoin:miter;stroke-opacity:1"
       d="M 361.42858,98.880064 C 262.85714,197.4515 262.85714,197.4515 262.85714,197.4515"
       id="path3822-9"
       inkscape:connector-curvature="0" />
    <path
       sodipodi:type="arc"
       style="fill:#feff00;fill-opacity:1;stroke:#000000;stroke-opacity:1"
       id="path2985-00"
       sodipodi:cx="65.659912"
       sodipodi:cy="91.707115"
       sodipodi:rx="36.36549"
       sodipodi:ry="36.36549"
       d="m 102.0254,91.707115 a 36.36549,36.36549 0 1 1 -1.2e-4,-0.09398"
       sodipodi:start="0"
       sodipodi:end="6.2806011"
       sodipodi:open="true"
       transform="translate(21.205578,283.78957)" />
    <path
       transform="translate(171.20558,283.78957)"
       sodipodi:type="arc"
       style="fill:#feff00;fill-opacity:1;stroke:#000000;stroke-opacity:1"
       id="path2985-1-6"
       sodipodi:cx="65.659912"
       sodipodi:cy="91.707115"
       sodipodi:rx="36.36549"
       sodipodi:ry="36.36549"
       d="m 102.0254,91.707115 a 36.36549,36.36549 0 1 1 -1.2e-4,-0.09398"
       sodipodi:start="0"
       sodipodi:end="6.2806011"
       sodipodi:open="true" />
    <path
       sodipodi:type="arc"
       style="fill:#feff00;fill-opacity:1;stroke:#000000;stroke-opacity:1"
       id="path2985-0-1"
       sodipodi:cx="65.659912"
       sodipodi:cy="91.707115"
       sodipodi:rx="36.36549"
       sodipodi:ry="36.36549"
       d="m 102.0254,91.707115 a 36.36549,36.36549 0 1 1 -1.2e-4,-0.09398"
       sodipodi:start="0"
       sodipodi:end="6.2806011"
       sodipodi:open="true"
       transform="translate(21.205578,433.78958)" />
    <path
       transform="translate(171.20558,433.78958)"
       sodipodi:type="arc"
       style="fill:#feff00;fill-opacity:1;stroke:#000000;stroke-opacity:1"
       id="path2985-1-9-3"
       sodipodi:cx="65.659912"
       sodipodi:cy="91.707115"
       sodipodi:rx="36.36549"
       sodipodi:ry="36.36549"
       d="m 102.0254,91.707115 a 36.36549,36.36549 0 1 1 -1.2e-4,-0.09398"
       sodipodi:start="0"
       sodipodi:end="6.2806011"
       sodipodi:open="true" />
    <path
       style="fill:none;stroke:#000000;stroke-width:1px;stroke-linecap:butt;stroke-linejoin:miter;stroke-opacity:1"
       d="m 122.5,377.00504 c 77.85714,0 77.85714,0 77.85714,0"
       id="path3812-8"
       inkscape:connector-curvature="0" />
    <path
       style="fill:none;stroke:#000000;stroke-width:1px;stroke-linecap:butt;stroke-linejoin:miter;stroke-opacity:1"
       d="m 85.357147,412.36218 c 0,77.14286 -0.35715,77.14286 -0.35715,77.14286"
       id="path3814-9"
       inkscape:connector-curvature="0" />
    <path
       style="fill:none;stroke:#000000;stroke-width:1px;stroke-linecap:butt;stroke-linejoin:miter;stroke-opacity:1"
       d="m 122.85714,527.71932 c 76.78572,0 76.78572,-0.35714 76.78572,-0.35714"
       id="path3816-3"
       inkscape:connector-curvature="0" />
    <path
       style="fill:none;stroke:#000000;stroke-width:1px;stroke-linecap:butt;stroke-linejoin:miter;stroke-opacity:1"
       d="m 239.64286,488.79075 c 0,-76.78571 0,-76.78571 0,-76.78571"
       id="path3818-4"
       inkscape:connector-curvature="0" />
    <path
       style="fill:none;stroke:#000000;stroke-width:1px;stroke-linecap:butt;stroke-linejoin:miter;stroke-opacity:1"
       d="m 112.5,400.93361 c 98.57143,98.57143 98.92857,98.21429 98.92857,98.21429"
       id="path3820-46"
       inkscape:connector-curvature="0" />
    <path
       style="fill:none;stroke:#000000;stroke-width:1px;stroke-linecap:butt;stroke-linejoin:miter;stroke-opacity:1"
       d="M 211.07143,400.93361 C 112.5,499.50504 112.5,499.50504 112.5,499.50504"
       id="path3822-0"
       inkscape:connector-curvature="0" />
    <path
       sodipodi:type="arc"
       style="fill:#feff00;fill-opacity:1;stroke:#000000;stroke-opacity:1"
       id="path2985-3-6"
       sodipodi:cx="65.659912"
       sodipodi:cy="91.707115"
       sodipodi:rx="36.36549"
       sodipodi:ry="36.36549"
       d="m 102.0254,91.707115 a 36.36549,36.36549 0 1 1 -1.2e-4,-0.09398"
       sodipodi:start="0"
       sodipodi:end="6.2806011"
       sodipodi:open="true"
       transform="translate(321.74129,283.78956)" />
    <path
       transform="translate(471.74129,283.78956)"
       sodipodi:type="arc"
       style="fill:#feff00;fill-opacity:1;stroke:#000000;stroke-opacity:1"
       id="path2985-1-1-6"
       sodipodi:cx="65.659912"
       sodipodi:cy="91.707115"
       sodipodi:rx="36.36549"
       sodipodi:ry="36.36549"
       d="m 102.0254,91.707115 a 36.36549,36.36549 0 1 1 -1.2e-4,-0.09398"
       sodipodi:start="0"
       sodipodi:end="6.2806011"
       sodipodi:open="true" />
    <path
       sodipodi:type="arc"
       style="fill:#feff00;fill-opacity:1;stroke:#000000;stroke-opacity:1"
       id="path2985-0-9-1"
       sodipodi:cx="65.659912"
       sodipodi:cy="91.707115"
       sodipodi:rx="36.36549"
       sodipodi:ry="36.36549"
       d="m 102.0254,91.707115 a 36.36549,36.36549 0 1 1 -1.2e-4,-0.09398"
       sodipodi:start="0"
       sodipodi:end="6.2806011"
       sodipodi:open="true"
       transform="translate(321.74129,433.78958)" />
    <path
       transform="translate(471.74129,433.78958)"
       sodipodi:type="arc"
       style="fill:#feff00;fill-opacity:1;stroke:#000000;stroke-opacity:1"
       id="path2985-1-9-8-8"
       sodipodi:cx="65.659912"
       sodipodi:cy="91.707115"
       sodipodi:rx="36.36549"
       sodipodi:ry="36.36549"
       d="m 102.0254,91.707115 a 36.36549,36.36549 0 1 1 -1.2e-4,-0.09398"
       sodipodi:start="0"
       sodipodi:end="6.2806011"
       sodipodi:open="true" />
    <path
       style="fill:none;stroke:#000000;stroke-width:1px;stroke-linecap:butt;stroke-linejoin:miter;stroke-opacity:1"
       d="m 423.03571,377.00504 c 77.85714,0 77.85714,0 77.85714,0"
       id="path3812-6-4"
       inkscape:connector-curvature="0" />
    <path
       style="fill:none;stroke:#000000;stroke-width:1px;stroke-linecap:butt;stroke-linejoin:miter;stroke-opacity:1"
       d="m 385.89286,412.36218 c 0,77.14286 -0.35715,77.14286 -0.35715,77.14286"
       id="path3814-5-9"
       inkscape:connector-curvature="0" />
    <path
       style="fill:none;stroke:#000000;stroke-width:1px;stroke-linecap:butt;stroke-linejoin:miter;stroke-opacity:1"
       d="m 423.39285,527.71932 c 76.78572,0 76.78572,-0.35714 76.78572,-0.35714"
       id="path3816-0-6"
       inkscape:connector-curvature="0" />
    <path
       style="fill:none;stroke:#000000;stroke-width:1px;stroke-linecap:butt;stroke-linejoin:miter;stroke-opacity:1"
       d="m 540.17857,488.79075 c 0,-76.78571 0,-76.78571 0,-76.78571"
       id="path3818-2-3"
       inkscape:connector-curvature="0" />
    <path
       style="fill:none;stroke:#000000;stroke-width:1px;stroke-linecap:butt;stroke-linejoin:miter;stroke-opacity:1"
       d="m 413.39285,400.93361 c 98.57143,98.57143 98.92857,98.21429 98.92857,98.21429"
       id="path3820-8-7"
       inkscape:connector-curvature="0" />
    <path
       style="fill:none;stroke:#000000;stroke-width:1px;stroke-linecap:butt;stroke-linejoin:miter;stroke-opacity:1"
       d="m 511.60714,400.93361 c -98.57143,98.57143 -98.57143,98.57143 -98.57143,98.57143"
       id="path3822-6-8"
       inkscape:connector-curvature="0" />
    <path
       style="fill:none;stroke:#000000;stroke-width:1px;stroke-linecap:butt;stroke-linejoin:miter;stroke-opacity:1"
       d="m 273.46111,377.00518 c 77.85714,0 77.85714,0 77.85714,0"
       id="path3812-0-8"
       inkscape:connector-curvature="0" />
    <path
       style="fill:none;stroke:#000000;stroke-width:1px;stroke-linecap:butt;stroke-linejoin:miter;stroke-opacity:1"
       d="m 272.85714,527.71918 c 77.85714,0 77.85714,0 77.85714,0"
       id="path3812-0-2-2"
       inkscape:connector-curvature="0" />
    <path
       style="fill:none;stroke:#000000;stroke-width:1px;stroke-linecap:butt;stroke-linejoin:miter;stroke-opacity:1"
       d="m 261.60714,400.93387 c 98.57143,98.57143 98.92857,98.21429 98.92857,98.21429"
       id="path3820-4-9"
       inkscape:connector-curvature="0" />
    <path
       style="fill:none;stroke:#000000;stroke-width:1px;stroke-linecap:butt;stroke-linejoin:miter;stroke-opacity:1"
       d="m 361.42858,400.93375 c -98.57144,98.57143 -98.57144,98.57143 -98.57144,98.57143"
       id="path3822-9-1"
       inkscape:connector-curvature="0" />
    <path
       style="fill:none;stroke:#000000;stroke-width:1px;stroke-linecap:butt;stroke-linejoin:miter;stroke-opacity:1"
       d="m 85.357147,261.02279 c 0,77.14286 -0.35715,77.14286 -0.35715,77.14286"
       id="path3814-6"
       inkscape:connector-curvature="0" />
    <path
       style="fill:none;stroke:#000000;stroke-width:1px;stroke-linecap:butt;stroke-linejoin:miter;stroke-opacity:1"
       d="m 240.00015,261.02264 c 0,77.14286 -0.35715,77.14286 -0.35715,77.14286"
       id="path3814-3"
       inkscape:connector-curvature="0" />
    <path
       style="fill:none;stroke:#000000;stroke-width:1px;stroke-linecap:butt;stroke-linejoin:miter;stroke-opacity:1"
       d="m 385.89314,261.02264 c 0,77.14286 -0.35714,77.14286 -0.35714,77.14286"
       id="path3814-61"
       inkscape:connector-curvature="0" />
    <path
       style="fill:none;stroke:#000000;stroke-width:1px;stroke-linecap:butt;stroke-linejoin:miter;stroke-opacity:1"
       d="m 540.53614,261.02264 c 0,77.14286 -0.35714,77.14286 -0.35714,77.14286"
       id="path3814-54"
       inkscape:connector-curvature="0" />
    <path
       style="fill:none;stroke:#000000;stroke-width:1px;stroke-linecap:butt;stroke-linejoin:miter;stroke-opacity:1"
       d="M 111.07143,251.20135 C 209.64286,349.77278 210,349.41564 210,349.41564"
       id="path3820-2"
       inkscape:connector-curvature="0" />
    <path
       style="fill:none;stroke:#000000;stroke-width:1px;stroke-linecap:butt;stroke-linejoin:miter;stroke-opacity:1"
       d="m 260.89271,251.55849 c 98.57143,98.57143 98.92857,98.21429 98.92857,98.21429"
       id="path3820-0"
       inkscape:connector-curvature="0" />
    <path
       style="fill:none;stroke:#000000;stroke-width:1px;stroke-linecap:butt;stroke-linejoin:miter;stroke-opacity:1"
       d="m 413.393,249.05849 c 98.57143,98.57143 98.92857,98.21429 98.92857,98.21429"
       id="path3820-9"
       inkscape:connector-curvature="0" />
    <path
       style="fill:none;stroke:#000000;stroke-width:1px;stroke-linecap:butt;stroke-linejoin:miter;stroke-opacity:1"
       d="m 210.65758,250.12794 c -98.57143,98.57143 -98.57143,98.57143 -98.57143,98.57143"
       id="path3822-7"
       inkscape:connector-curvature="0" />
    <path
       style="fill:none;stroke:#000000;stroke-width:1px;stroke-linecap:butt;stroke-linejoin:miter;stroke-opacity:1"
       d="m 360.16016,249.37032 c -98.57143,98.57143 -98.57143,98.57143 -98.57143,98.57143"
       id="path3822-3"
       inkscape:connector-curvature="0" />
    <path
       style="fill:none;stroke:#000000;stroke-width:1px;stroke-linecap:butt;stroke-linejoin:miter;stroke-opacity:1"
       d="m 510.16781,249.11778 c -98.57143,98.57143 -98.57143,98.57143 -98.57143,98.57143"
       id="path3822-72"
       inkscape:connector-curvature="0" />
    <path
       sodipodi:type="arc"
       style="fill:#feff00;fill-opacity:1;stroke:#000000;stroke-opacity:1"
       id="path2985-4"
       sodipodi:cx="65.659912"
       sodipodi:cy="91.707115"
       sodipodi:rx="36.36549"
       sodipodi:ry="36.36549"
       d="m 102.0254,91.707115 a 36.36549,36.36549 0 1 1 -1.2e-4,-0.09398"
       sodipodi:start="0"
       sodipodi:end="6.2806011"
       sodipodi:open="true"
       transform="translate(21.205578,433.78989)" />
    <path
       transform="translate(171.20558,433.78989)"
       sodipodi:type="arc"
       style="fill:#feff00;fill-opacity:1;stroke:#000000;stroke-opacity:1"
       id="path2985-1-2"
       sodipodi:cx="65.659912"
       sodipodi:cy="91.707115"
       sodipodi:rx="36.36549"
       sodipodi:ry="36.36549"
       d="m 102.0254,91.707115 a 36.36549,36.36549 0 1 1 -1.2e-4,-0.09398"
       sodipodi:start="0"
       sodipodi:end="6.2806011"
       sodipodi:open="true" />
    <path
       sodipodi:type="arc"
       style="fill:#feff00;fill-opacity:1;stroke:#000000;stroke-opacity:1"
       id="path2985-0-5"
       sodipodi:cx="65.659912"
       sodipodi:cy="91.707115"
       sodipodi:rx="36.36549"
       sodipodi:ry="36.36549"
       d="m 102.0254,91.707115 a 36.36549,36.36549 0 1 1 -1.2e-4,-0.09398"
       sodipodi:start="0"
       sodipodi:end="6.2806011"
       sodipodi:open="true"
       transform="translate(21.205578,583.7899)" />
    <path
       transform="translate(171.20558,583.7899)"
       sodipodi:type="arc"
       style="fill:#feff00;fill-opacity:1;stroke:#000000;stroke-opacity:1"
       id="path2985-1-9-86"
       sodipodi:cx="65.659912"
       sodipodi:cy="91.707115"
       sodipodi:rx="36.36549"
       sodipodi:ry="36.36549"
       d="m 102.0254,91.707115 a 36.36549,36.36549 0 1 1 -1.2e-4,-0.09398"
       sodipodi:start="0"
       sodipodi:end="6.2806011"
       sodipodi:open="true" />
    <path
       style="fill:none;stroke:#000000;stroke-width:1px;stroke-linecap:butt;stroke-linejoin:miter;stroke-opacity:1"
       d="m 85.357148,562.3625 c 0,77.14286 -0.35715,77.14286 -0.35715,77.14286"
       id="path3814-65"
       inkscape:connector-curvature="0" />
    <path
       style="fill:none;stroke:#000000;stroke-width:1px;stroke-linecap:butt;stroke-linejoin:miter;stroke-opacity:1"
       d="m 122.85714,677.71964 c 76.78572,0 76.78572,-0.35714 76.78572,-0.35714"
       id="path3816-39"
       inkscape:connector-curvature="0" />
    <path
       style="fill:none;stroke:#000000;stroke-width:1px;stroke-linecap:butt;stroke-linejoin:miter;stroke-opacity:1"
       d="m 239.64286,638.79107 c 0,-76.78571 0,-76.78571 0,-76.78571"
       id="path3818-24"
       inkscape:connector-curvature="0" />
    <path
       style="fill:none;stroke:#000000;stroke-width:1px;stroke-linecap:butt;stroke-linejoin:miter;stroke-opacity:1"
       d="m 112.5,550.93392 c 98.57143,98.57144 98.92857,98.2143 98.92857,98.2143"
       id="path3820-6"
       inkscape:connector-curvature="0" />
    <path
       style="fill:none;stroke:#000000;stroke-width:1px;stroke-linecap:butt;stroke-linejoin:miter;stroke-opacity:1"
       d="M 211.07143,550.93392 C 112.5,649.50536 112.5,649.50536 112.5,649.50536"
       id="path3822-1"
       inkscape:connector-curvature="0" />
    <path
       sodipodi:type="arc"
       style="fill:#feff00;fill-opacity:1;stroke:#000000;stroke-opacity:1"
       id="path2985-3-8"
       sodipodi:cx="65.659912"
       sodipodi:cy="91.707115"
       sodipodi:rx="36.36549"
       sodipodi:ry="36.36549"
       d="m 102.0254,91.707115 a 36.36549,36.36549 0 1 1 -1.2e-4,-0.09398"
       sodipodi:start="0"
       sodipodi:end="6.2806011"
       sodipodi:open="true"
       transform="translate(321.74129,433.78988)" />
    <path
       transform="translate(471.74129,433.78988)"
       sodipodi:type="arc"
       style="fill:#feff00;fill-opacity:1;stroke:#000000;stroke-opacity:1"
       id="path2985-1-1-2"
       sodipodi:cx="65.659912"
       sodipodi:cy="91.707115"
       sodipodi:rx="36.36549"
       sodipodi:ry="36.36549"
       d="m 102.0254,91.707115 a 36.36549,36.36549 0 1 1 -1.2e-4,-0.09398"
       sodipodi:start="0"
       sodipodi:end="6.2806011"
       sodipodi:open="true" />
    <path
       sodipodi:type="arc"
       style="fill:#feff00;fill-opacity:1;stroke:#000000;stroke-opacity:1"
       id="path2985-0-9-11"
       sodipodi:cx="65.659912"
       sodipodi:cy="91.707115"
       sodipodi:rx="36.36549"
       sodipodi:ry="36.36549"
       d="m 102.0254,91.707115 a 36.36549,36.36549 0 1 1 -1.2e-4,-0.09398"
       sodipodi:start="0"
       sodipodi:end="6.2806011"
       sodipodi:open="true"
       transform="translate(321.74129,583.7899)" />
    <path
       transform="translate(471.74129,583.7899)"
       sodipodi:type="arc"
       style="fill:#feff00;fill-opacity:1;stroke:#000000;stroke-opacity:1"
       id="path2985-1-9-8-9"
       sodipodi:cx="65.659912"
       sodipodi:cy="91.707115"
       sodipodi:rx="36.36549"
       sodipodi:ry="36.36549"
       d="m 102.0254,91.707115 a 36.36549,36.36549 0 1 1 -1.2e-4,-0.09398"
       sodipodi:start="0"
       sodipodi:end="6.2806011"
       sodipodi:open="true" />
    <path
       style="fill:none;stroke:#000000;stroke-width:1px;stroke-linecap:butt;stroke-linejoin:miter;stroke-opacity:1"
       d="m 385.89286,562.3625 c 0,77.14286 -0.35715,77.14286 -0.35715,77.14286"
       id="path3814-5-6"
       inkscape:connector-curvature="0" />
    <path
       style="fill:none;stroke:#000000;stroke-width:1px;stroke-linecap:butt;stroke-linejoin:miter;stroke-opacity:1"
       d="m 423.39285,677.71964 c 76.78572,0 76.78572,-0.35714 76.78572,-0.35714"
       id="path3816-0-2"
       inkscape:connector-curvature="0" />
    <path
       style="fill:none;stroke:#000000;stroke-width:1px;stroke-linecap:butt;stroke-linejoin:miter;stroke-opacity:1"
       d="m 540.17857,638.79107 c 0,-76.78571 0,-76.78571 0,-76.78571"
       id="path3818-2-9"
       inkscape:connector-curvature="0" />
    <path
       style="fill:none;stroke:#000000;stroke-width:1px;stroke-linecap:butt;stroke-linejoin:miter;stroke-opacity:1"
       d="m 413.39285,550.93392 c 98.57143,98.57144 98.92857,98.2143 98.92857,98.2143"
       id="path3820-8-5"
       inkscape:connector-curvature="0" />
    <path
       style="fill:none;stroke:#000000;stroke-width:1px;stroke-linecap:butt;stroke-linejoin:miter;stroke-opacity:1"
       d="m 511.60714,550.93392 c -98.57143,98.57144 -98.57143,98.57144 -98.57143,98.57144"
       id="path3822-6-2"
       inkscape:connector-curvature="0" />
    <path
       style="fill:none;stroke:#000000;stroke-width:1px;stroke-linecap:butt;stroke-linejoin:miter;stroke-opacity:1"
       d="m 272.85714,677.7195 c 77.85714,0 77.85714,0 77.85714,0"
       id="path3812-0-2-0"
       inkscape:connector-curvature="0" />
    <path
       style="fill:none;stroke:#000000;stroke-width:1px;stroke-linecap:butt;stroke-linejoin:miter;stroke-opacity:1"
       d="m 261.60714,550.93418 c 98.57143,98.57144 98.92857,98.2143 98.92857,98.2143"
       id="path3820-4-3"
       inkscape:connector-curvature="0" />
    <path
       style="fill:none;stroke:#000000;stroke-width:1px;stroke-linecap:butt;stroke-linejoin:miter;stroke-opacity:1"
       d="M 361.42858,550.93406 C 262.85714,649.5055 262.85714,649.5055 262.85714,649.5055"
       id="path3822-9-9"
       inkscape:connector-curvature="0" />
    <path
       sodipodi:type="arc"
       style="fill:#feff00;fill-opacity:1;stroke:#000000;stroke-opacity:1"
       id="path2985-00-1"
       sodipodi:cx="65.659912"
       sodipodi:cy="91.707115"
       sodipodi:rx="36.36549"
       sodipodi:ry="36.36549"
       d="m 102.0254,91.707115 a 36.36549,36.36549 0 1 1 -1.2e-4,-0.09398"
       sodipodi:start="0"
       sodipodi:end="6.2806011"
       sodipodi:open="true"
       transform="translate(21.205578,735.84357)" />
    <path
       transform="translate(171.20558,735.84357)"
       sodipodi:type="arc"
       style="fill:#feff00;fill-opacity:1;stroke:#000000;stroke-opacity:1"
       id="path2985-1-6-8"
       sodipodi:cx="65.659912"
       sodipodi:cy="91.707115"
       sodipodi:rx="36.36549"
       sodipodi:ry="36.36549"
       d="m 102.0254,91.707115 a 36.36549,36.36549 0 1 1 -1.2e-4,-0.09398"
       sodipodi:start="0"
       sodipodi:end="6.2806011"
       sodipodi:open="true" />
    <path
       sodipodi:type="arc"
       style="fill:#feff00;fill-opacity:1;stroke:#000000;stroke-opacity:1"
       id="path2985-0-1-1"
       sodipodi:cx="65.659912"
       sodipodi:cy="91.707115"
       sodipodi:rx="36.36549"
       sodipodi:ry="36.36549"
       d="m 102.0254,91.707115 a 36.36549,36.36549 0 1 1 -1.2e-4,-0.09398"
       sodipodi:start="0"
       sodipodi:end="6.2806011"
       sodipodi:open="true"
       transform="translate(21.205578,885.84358)" />
    <path
       transform="translate(171.20558,885.84358)"
       sodipodi:type="arc"
       style="fill:#feff00;fill-opacity:1;stroke:#000000;stroke-opacity:1"
       id="path2985-1-9-3-9"
       sodipodi:cx="65.659912"
       sodipodi:cy="91.707115"
       sodipodi:rx="36.36549"
       sodipodi:ry="36.36549"
       d="m 102.0254,91.707115 a 36.36549,36.36549 0 1 1 -1.2e-4,-0.09398"
       sodipodi:start="0"
       sodipodi:end="6.2806011"
       sodipodi:open="true" />
    <path
       style="fill:none;stroke:#000000;stroke-width:1px;stroke-linecap:butt;stroke-linejoin:miter;stroke-opacity:1"
       d="m 122.5,829.05904 c 77.85714,0 77.85714,0 77.85714,0"
       id="path3812-8-5"
       inkscape:connector-curvature="0" />
    <path
       style="fill:none;stroke:#000000;stroke-width:1px;stroke-linecap:butt;stroke-linejoin:miter;stroke-opacity:1"
       d="m 85.357148,864.41618 c 0,77.14286 -0.35715,77.14286 -0.35715,77.14286"
       id="path3814-9-3"
       inkscape:connector-curvature="0" />
    <path
       style="fill:none;stroke:#000000;stroke-width:1px;stroke-linecap:butt;stroke-linejoin:miter;stroke-opacity:1"
       d="m 122.85714,979.77332 c 76.78572,0 76.78572,-0.35714 76.78572,-0.35714"
       id="path3816-3-2"
       inkscape:connector-curvature="0" />
    <path
       style="fill:none;stroke:#000000;stroke-width:1px;stroke-linecap:butt;stroke-linejoin:miter;stroke-opacity:1"
       d="m 239.64286,940.84475 c 0,-76.78571 0,-76.78571 0,-76.78571"
       id="path3818-4-5"
       inkscape:connector-curvature="0" />
    <path
       style="fill:none;stroke:#000000;stroke-width:1px;stroke-linecap:butt;stroke-linejoin:miter;stroke-opacity:1"
       d="m 112.5,852.98761 c 98.57143,98.57143 98.92857,98.21429 98.92857,98.21429"
       id="path3820-46-2"
       inkscape:connector-curvature="0" />
    <path
       style="fill:none;stroke:#000000;stroke-width:1px;stroke-linecap:butt;stroke-linejoin:miter;stroke-opacity:1"
       d="M 211.07143,852.98761 C 112.5,951.55904 112.5,951.55904 112.5,951.55904"
       id="path3822-0-5"
       inkscape:connector-curvature="0" />
    <path
       sodipodi:type="arc"
       style="fill:#feff00;fill-opacity:1;stroke:#000000;stroke-opacity:1"
       id="path2985-3-6-8"
       sodipodi:cx="65.659912"
       sodipodi:cy="91.707115"
       sodipodi:rx="36.36549"
       sodipodi:ry="36.36549"
       d="m 102.0254,91.707115 a 36.36549,36.36549 0 1 1 -1.2e-4,-0.09398"
       sodipodi:start="0"
       sodipodi:end="6.2806011"
       sodipodi:open="true"
       transform="translate(321.74129,735.84356)" />
    <path
       transform="translate(471.74129,735.84356)"
       sodipodi:type="arc"
       style="fill:#feff00;fill-opacity:1;stroke:#000000;stroke-opacity:1"
       id="path2985-1-1-6-6"
       sodipodi:cx="65.659912"
       sodipodi:cy="91.707115"
       sodipodi:rx="36.36549"
       sodipodi:ry="36.36549"
       d="m 102.0254,91.707115 a 36.36549,36.36549 0 1 1 -1.2e-4,-0.09398"
       sodipodi:start="0"
       sodipodi:end="6.2806011"
       sodipodi:open="true" />
    <path
       sodipodi:type="arc"
       style="fill:#feff00;fill-opacity:1;stroke:#000000;stroke-opacity:1"
       id="path2985-0-9-1-7"
       sodipodi:cx="65.659912"
       sodipodi:cy="91.707115"
       sodipodi:rx="36.36549"
       sodipodi:ry="36.36549"
       d="m 102.0254,91.707115 a 36.36549,36.36549 0 1 1 -1.2e-4,-0.09398"
       sodipodi:start="0"
       sodipodi:end="6.2806011"
       sodipodi:open="true"
       transform="translate(321.74129,885.84358)" />
    <path
       transform="translate(471.74129,885.84358)"
       sodipodi:type="arc"
       style="fill:#feff00;fill-opacity:1;stroke:#000000;stroke-opacity:1"
       id="path2985-1-9-8-8-7"
       sodipodi:cx="65.659912"
       sodipodi:cy="91.707115"
       sodipodi:rx="36.36549"
       sodipodi:ry="36.36549"
       d="m 102.0254,91.707115 a 36.36549,36.36549 0 1 1 -1.2e-4,-0.09398"
       sodipodi:start="0"
       sodipodi:end="6.2806011"
       sodipodi:open="true" />
    <path
       style="fill:none;stroke:#000000;stroke-width:1px;stroke-linecap:butt;stroke-linejoin:miter;stroke-opacity:1"
       d="m 423.03571,829.05904 c 77.85714,0 77.85714,0 77.85714,0"
       id="path3812-6-4-2"
       inkscape:connector-curvature="0" />
    <path
       style="fill:none;stroke:#000000;stroke-width:1px;stroke-linecap:butt;stroke-linejoin:miter;stroke-opacity:1"
       d="m 385.89286,864.41618 c 0,77.14286 -0.35715,77.14286 -0.35715,77.14286"
       id="path3814-5-9-2"
       inkscape:connector-curvature="0" />
    <path
       style="fill:none;stroke:#000000;stroke-width:1px;stroke-linecap:butt;stroke-linejoin:miter;stroke-opacity:1"
       d="m 423.39285,979.77332 c 76.78572,0 76.78572,-0.35714 76.78572,-0.35714"
       id="path3816-0-6-9"
       inkscape:connector-curvature="0" />
    <path
       style="fill:none;stroke:#000000;stroke-width:1px;stroke-linecap:butt;stroke-linejoin:miter;stroke-opacity:1"
       d="m 540.17857,940.84475 c 0,-76.78571 0,-76.78571 0,-76.78571"
       id="path3818-2-3-4"
       inkscape:connector-curvature="0" />
    <path
       style="fill:none;stroke:#000000;stroke-width:1px;stroke-linecap:butt;stroke-linejoin:miter;stroke-opacity:1"
       d="m 413.39285,852.98761 c 98.57143,98.57143 98.92857,98.21429 98.92857,98.21429"
       id="path3820-8-7-1"
       inkscape:connector-curvature="0" />
    <path
       style="fill:none;stroke:#000000;stroke-width:1px;stroke-linecap:butt;stroke-linejoin:miter;stroke-opacity:1"
       d="m 511.60714,852.98761 c -98.57143,98.57143 -98.57143,98.57143 -98.57143,98.57143"
       id="path3822-6-8-9"
       inkscape:connector-curvature="0" />
    <path
       style="fill:none;stroke:#000000;stroke-width:1px;stroke-linecap:butt;stroke-linejoin:miter;stroke-opacity:1"
       d="m 273.46111,829.05918 c 77.85714,0 77.85714,0 77.85714,0"
       id="path3812-0-8-6"
       inkscape:connector-curvature="0" />
    <path
       style="fill:none;stroke:#000000;stroke-width:1px;stroke-linecap:butt;stroke-linejoin:miter;stroke-opacity:1"
       d="m 272.85714,979.77318 c 77.85714,0 77.85714,0 77.85714,0"
       id="path3812-0-2-2-9"
       inkscape:connector-curvature="0" />
    <path
       style="fill:none;stroke:#000000;stroke-width:1px;stroke-linecap:butt;stroke-linejoin:miter;stroke-opacity:1"
       d="m 261.60714,852.98787 c 98.57143,98.57143 98.92857,98.21429 98.92857,98.21429"
       id="path3820-4-9-8"
       inkscape:connector-curvature="0" />
    <path
       style="fill:none;stroke:#000000;stroke-width:1px;stroke-linecap:butt;stroke-linejoin:miter;stroke-opacity:1"
       d="m 361.42858,852.98775 c -98.57144,98.57143 -98.57144,98.57143 -98.57144,98.57143"
       id="path3822-9-1-2"
       inkscape:connector-curvature="0" />
    <path
       style="fill:none;stroke:#000000;stroke-width:1px;stroke-linecap:butt;stroke-linejoin:miter;stroke-opacity:1"
       d="m 85.357148,713.07679 c 0,77.14286 -0.35715,77.14286 -0.35715,77.14286"
       id="path3814-6-5"
       inkscape:connector-curvature="0" />
    <path
       style="fill:none;stroke:#000000;stroke-width:1px;stroke-linecap:butt;stroke-linejoin:miter;stroke-opacity:1"
       d="m 240.00015,713.07664 c 0,77.14286 -0.35715,77.14286 -0.35715,77.14286"
       id="path3814-3-5"
       inkscape:connector-curvature="0" />
    <path
       style="fill:none;stroke:#000000;stroke-width:1px;stroke-linecap:butt;stroke-linejoin:miter;stroke-opacity:1"
       d="m 385.89314,713.07664 c 0,77.14286 -0.35714,77.14286 -0.35714,77.14286"
       id="path3814-61-4"
       inkscape:connector-curvature="0" />
    <path
       style="fill:none;stroke:#000000;stroke-width:1px;stroke-linecap:butt;stroke-linejoin:miter;stroke-opacity:1"
       d="m 540.53614,713.07664 c 0,77.14286 -0.35714,77.14286 -0.35714,77.14286"
       id="path3814-54-9"
       inkscape:connector-curvature="0" />
    <path
       style="fill:none;stroke:#000000;stroke-width:1px;stroke-linecap:butt;stroke-linejoin:miter;stroke-opacity:1"
       d="M 111.07143,703.25535 C 209.64286,801.82678 210,801.46964 210,801.46964"
       id="path3820-2-1"
       inkscape:connector-curvature="0" />
    <path
       style="fill:none;stroke:#000000;stroke-width:1px;stroke-linecap:butt;stroke-linejoin:miter;stroke-opacity:1"
       d="m 260.89271,703.61249 c 98.57143,98.57143 98.92857,98.21429 98.92857,98.21429"
       id="path3820-0-2"
       inkscape:connector-curvature="0" />
    <path
       style="fill:none;stroke:#000000;stroke-width:1px;stroke-linecap:butt;stroke-linejoin:miter;stroke-opacity:1"
       d="m 413.393,701.11249 c 98.57143,98.57143 98.92857,98.21429 98.92857,98.21429"
       id="path3820-9-5"
       inkscape:connector-curvature="0" />
    <path
       style="fill:none;stroke:#000000;stroke-width:1px;stroke-linecap:butt;stroke-linejoin:miter;stroke-opacity:1"
       d="m 210.65758,702.18194 c -98.57143,98.57143 -98.57143,98.57143 -98.57143,98.57143"
       id="path3822-7-0"
       inkscape:connector-curvature="0" />
    <path
       style="fill:none;stroke:#000000;stroke-width:1px;stroke-linecap:butt;stroke-linejoin:miter;stroke-opacity:1"
       d="m 360.16016,701.42432 c -98.57143,98.57143 -98.57143,98.57143 -98.57143,98.57143"
       id="path3822-3-8"
       inkscape:connector-curvature="0" />
    <path
       style="fill:none;stroke:#000000;stroke-width:1px;stroke-linecap:butt;stroke-linejoin:miter;stroke-opacity:1"
       d="m 510.16781,701.17178 c -98.57143,98.57143 -98.57143,98.57143 -98.57143,98.57143"
       id="path3822-72-3"
       inkscape:connector-curvature="0" />
  </g>
</svg>
