<?xml version="1.0" encoding="UTF-8" standalone="no"?>
<!-- Created with Inkscape (http://www.inkscape.org/) -->

<svg
   xmlns:dc="http://purl.org/dc/elements/1.1/"
   xmlns:cc="http://creativecommons.org/ns#"
   xmlns:rdf="http://www.w3.org/1999/02/22-rdf-syntax-ns#"
   xmlns:svg="http://www.w3.org/2000/svg"
   xmlns="http://www.w3.org/2000/svg"
   xmlns:sodipodi="http://sodipodi.sourceforge.net/DTD/sodipodi-0.dtd"
   xmlns:inkscape="http://www.inkscape.org/namespaces/inkscape"
   width="297mm"
   height="210mm"
   id="svg4705"
   version="1.1"
   inkscape:version="0.48.4 r9939"
   sodipodi:docname="mriezkovy_graf.svg">
  <defs
     id="defs4707" />
  <sodipodi:namedview
     inkscape:document-units="mm"
     pagecolor="#ffffff"
     bordercolor="#666666"
     borderopacity="1.0"
     inkscape:pageopacity="0.0"
     inkscape:pageshadow="2"
     inkscape:zoom="0.61399264"
     inkscape:cx="534.00695"
     inkscape:cy="417.77234"
     inkscape:current-layer="layer1"
     id="namedview4709"
     showgrid="false"
     inkscape:window-width="1920"
     inkscape:window-height="1005"
     inkscape:window-x="-9"
     inkscape:window-y="-9"
     inkscape:window-maximized="1" />
  <metadata
     id="metadata4711">
    <rdf:RDF>
      <cc:Work
         rdf:about="">
        <dc:format>image/svg+xml</dc:format>
        <dc:type
           rdf:resource="http://purl.org/dc/dcmitype/StillImage" />
        <dc:title />
      </cc:Work>
    </rdf:RDF>
  </metadata>
  <g
     inkscape:label="Layer 1"
     inkscape:groupmode="layer"
     id="layer1">
    <path
       sodipodi:type="arc"
       style="fill:#feff00;fill-opacity:1;stroke:#000000;stroke-opacity:1"
       id="path2985"
       sodipodi:cx="65.659912"
       sodipodi:cy="91.707115"
       sodipodi:rx="36.36549"
       sodipodi:ry="36.36549"
       d="m 102.0254,91.707115 a 36.36549,36.36549 0 1 1 -1.2e-4,-0.09398"
       sodipodi:start="0"
       sodipodi:end="6.2806011"
       sodipodi:open="true"
       transform="matrix(0,1,-1,0,162.50397,507.53363)" />
    <path
       transform="matrix(0,1,-1,0,162.50397,357.53362)"
       sodipodi:type="arc"
       style="fill:#feff00;fill-opacity:1;stroke:#000000;stroke-opacity:1"
       id="path2985-1"
       sodipodi:cx="65.659912"
       sodipodi:cy="91.707115"
       sodipodi:rx="36.36549"
       sodipodi:ry="36.36549"
       d="m 102.0254,91.707115 a 36.36549,36.36549 0 1 1 -1.2e-4,-0.09398"
       sodipodi:start="0"
       sodipodi:end="6.2806011"
       sodipodi:open="true" />
    <path
       sodipodi:type="arc"
       style="fill:#feff00;fill-opacity:1;stroke:#000000;stroke-opacity:1"
       id="path2985-0"
       sodipodi:cx="65.659912"
       sodipodi:cy="91.707115"
       sodipodi:rx="36.36549"
       sodipodi:ry="36.36549"
       d="m 102.0254,91.707115 a 36.36549,36.36549 0 1 1 -1.2e-4,-0.09398"
       sodipodi:start="0"
       sodipodi:end="6.2806011"
       sodipodi:open="true"
       transform="matrix(0,1,-1,0,312.50398,507.53363)" />
    <path
       transform="matrix(0,1,-1,0,312.50398,357.53362)"
       sodipodi:type="arc"
       style="fill:#feff00;fill-opacity:1;stroke:#000000;stroke-opacity:1"
       id="path2985-1-9"
       sodipodi:cx="65.659912"
       sodipodi:cy="91.707115"
       sodipodi:rx="36.36549"
       sodipodi:ry="36.36549"
       d="m 102.0254,91.707115 a 36.36549,36.36549 0 1 1 -1.2e-4,-0.09398"
       sodipodi:start="0"
       sodipodi:end="6.2806011"
       sodipodi:open="true" />
    <path
       style="fill:none;stroke:#000000;stroke-width:1px;stroke-linecap:butt;stroke-linejoin:miter;stroke-opacity:1"
       d="m 72.305212,459.70189 c 0,77.85714 0,77.85714 0,77.85714"
       id="path3812"
       inkscape:connector-curvature="0" />
    <path
       style="fill:none;stroke:#000000;stroke-width:1px;stroke-linecap:butt;stroke-linejoin:miter;stroke-opacity:1"
       d="m 184.80522,575.05904 c -77.14287,0 -77.14287,-0.35715 -77.14287,-0.35715"
       id="path3814"
       inkscape:connector-curvature="0" />
    <path
       style="fill:none;stroke:#000000;stroke-width:1px;stroke-linecap:butt;stroke-linejoin:miter;stroke-opacity:1"
       d="m 222.66236,460.41617 c 0,76.78572 0.35714,76.78572 0.35714,76.78572"
       id="path3816"
       inkscape:connector-curvature="0" />
    <path
       style="fill:none;stroke:#000000;stroke-width:1px;stroke-linecap:butt;stroke-linejoin:miter;stroke-opacity:1"
       d="m 107.30521,420.41617 c 76.78572,0 76.78572,0 76.78572,0"
       id="path3818"
       inkscape:connector-curvature="0" />
    <path
       style="fill:none;stroke:#000000;stroke-width:1px;stroke-linecap:butt;stroke-linejoin:miter;stroke-opacity:1"
       d="M 194.4481,448.63046 C 95.876662,547.2019 96.233802,547.55904 96.233802,547.55904"
       id="path3820"
       inkscape:connector-curvature="0" />
    <path
       style="fill:none;stroke:#000000;stroke-width:1px;stroke-linecap:butt;stroke-linejoin:miter;stroke-opacity:1"
       d="M 194.80522,547.55904 C 96.233782,448.9876 96.233782,448.9876 96.233782,448.9876"
       id="path3822"
       inkscape:connector-curvature="0" />
    <path
       sodipodi:type="arc"
       style="fill:#feff00;fill-opacity:1;stroke:#000000;stroke-opacity:1"
       id="path2985-3"
       sodipodi:cx="65.659912"
       sodipodi:cy="91.707115"
       sodipodi:rx="36.36549"
       sodipodi:ry="36.36549"
       d="m 102.0254,91.707115 a 36.36549,36.36549 0 1 1 -1.2e-4,-0.09398"
       sodipodi:start="0"
       sodipodi:end="6.2806011"
       sodipodi:open="true"
       transform="matrix(0,1,-1,0,162.50396,206.9979)" />
    <path
       transform="matrix(0,1,-1,0,162.50396,56.997906)"
       sodipodi:type="arc"
       style="fill:#feff00;fill-opacity:1;stroke:#000000;stroke-opacity:1"
       id="path2985-1-1"
       sodipodi:cx="65.659912"
       sodipodi:cy="91.707115"
       sodipodi:rx="36.36549"
       sodipodi:ry="36.36549"
       d="m 102.0254,91.707115 a 36.36549,36.36549 0 1 1 -1.2e-4,-0.09398"
       sodipodi:start="0"
       sodipodi:end="6.2806011"
       sodipodi:open="true" />
    <path
       sodipodi:type="arc"
       style="fill:#feff00;fill-opacity:1;stroke:#000000;stroke-opacity:1"
       id="path2985-0-9"
       sodipodi:cx="65.659912"
       sodipodi:cy="91.707115"
       sodipodi:rx="36.36549"
       sodipodi:ry="36.36549"
       d="m 102.0254,91.707115 a 36.36549,36.36549 0 1 1 -1.2e-4,-0.09398"
       sodipodi:start="0"
       sodipodi:end="6.2806011"
       sodipodi:open="true"
       transform="matrix(0,1,-1,0,312.50398,206.9979)" />
    <path
       style="fill:none;stroke:#000000;stroke-width:1px;stroke-linecap:butt;stroke-linejoin:miter;stroke-opacity:1"
       d="m 72.305212,159.16617 c 0,77.85714 0,77.85714 0,77.85714"
       id="path3812-6"
       inkscape:connector-curvature="0" />
    <path
       style="fill:none;stroke:#000000;stroke-width:1px;stroke-linecap:butt;stroke-linejoin:miter;stroke-opacity:1"
       d="m 184.80522,274.52332 c -77.14287,0 -77.14287,-0.35715 -77.14287,-0.35715"
       id="path3814-5"
       inkscape:connector-curvature="0" />
    <path
       style="fill:none;stroke:#000000;stroke-width:1px;stroke-linecap:butt;stroke-linejoin:miter;stroke-opacity:1"
       d="M 194.80524,247.0233 C 96.233802,148.45188 96.233802,148.45188 96.233802,148.45188"
       id="path3822-6"
       inkscape:connector-curvature="0" />
    <path
       style="fill:none;stroke:#000000;stroke-width:1px;stroke-linecap:butt;stroke-linejoin:miter;stroke-opacity:1"
       d="m 72.305352,308.74078 c 0,77.85714 0,77.85714 0,77.85714"
       id="path3812-0"
       inkscape:connector-curvature="0" />
    <path
       style="fill:none;stroke:#000000;stroke-width:1px;stroke-linecap:butt;stroke-linejoin:miter;stroke-opacity:1"
       d="m 223.01936,309.34475 c 0,77.85714 0,77.85714 0,77.85714"
       id="path3812-0-2"
       inkscape:connector-curvature="0" />
    <path
       style="fill:none;stroke:#000000;stroke-width:1px;stroke-linecap:butt;stroke-linejoin:miter;stroke-opacity:1"
       d="M 194.44835,299.52332 C 95.876912,398.09475 96.234052,398.45189 96.234052,398.45189"
       id="path3820-4"
       inkscape:connector-curvature="0" />
    <path
       style="fill:none;stroke:#000000;stroke-width:1px;stroke-linecap:butt;stroke-linejoin:miter;stroke-opacity:1"
       d="M 194.80536,397.20189 C 96.233922,298.63045 96.233922,298.63045 96.233922,298.63045"
       id="path3822-9"
       inkscape:connector-curvature="0" />
    <path
       transform="matrix(0,1,-1,0,464.55766,357.53362)"
       sodipodi:type="arc"
       style="fill:#feff00;fill-opacity:1;stroke:#000000;stroke-opacity:1"
       id="path2985-1-6"
       sodipodi:cx="65.659912"
       sodipodi:cy="91.707115"
       sodipodi:rx="36.36549"
       sodipodi:ry="36.36549"
       d="m 102.0254,91.707115 a 36.36549,36.36549 0 1 1 -1.2e-4,-0.09398"
       sodipodi:start="0"
       sodipodi:end="6.2806011"
       sodipodi:open="true" />
    <path
       sodipodi:type="arc"
       style="fill:#feff00;fill-opacity:1;stroke:#000000;stroke-opacity:1"
       id="path2985-0-1"
       sodipodi:cx="65.659912"
       sodipodi:cy="91.707115"
       sodipodi:rx="36.36549"
       sodipodi:ry="36.36549"
       d="m 102.0254,91.707115 a 36.36549,36.36549 0 1 1 -1.2e-4,-0.09398"
       sodipodi:start="0"
       sodipodi:end="6.2806011"
       sodipodi:open="true"
       transform="matrix(0,1,-1,0,614.55768,507.53363)" />
    <path
       transform="matrix(0,1,-1,0,614.55768,357.53362)"
       sodipodi:type="arc"
       style="fill:#feff00;fill-opacity:1;stroke:#000000;stroke-opacity:1"
       id="path2985-1-9-3"
       sodipodi:cx="65.659912"
       sodipodi:cy="91.707115"
       sodipodi:rx="36.36549"
       sodipodi:ry="36.36549"
       d="m 102.0254,91.707115 a 36.36549,36.36549 0 1 1 -1.2e-4,-0.09398"
       sodipodi:start="0"
       sodipodi:end="6.2806011"
       sodipodi:open="true" />
    <path
       style="fill:none;stroke:#000000;stroke-width:1px;stroke-linecap:butt;stroke-linejoin:miter;stroke-opacity:1"
       d="m 524.71604,460.41617 c 0,76.78572 0.35714,76.78572 0.35714,76.78572"
       id="path3816-3"
       inkscape:connector-curvature="0" />
    <path
       style="fill:none;stroke:#000000;stroke-width:1px;stroke-linecap:butt;stroke-linejoin:miter;stroke-opacity:1"
       d="m 409.35889,420.41617 c 76.78572,0 76.78572,0 76.78572,0"
       id="path3818-4"
       inkscape:connector-curvature="0" />
    <path
       style="fill:none;stroke:#000000;stroke-width:1px;stroke-linecap:butt;stroke-linejoin:miter;stroke-opacity:1"
       d="M 496.8589,547.55903 C 398.28746,448.9876 398.28746,448.9876 398.28746,448.9876"
       id="path3822-0"
       inkscape:connector-curvature="0" />
    <path
       sodipodi:type="arc"
       style="fill:#feff00;fill-opacity:1;stroke:#000000;stroke-opacity:1"
       id="path2985-3-6"
       sodipodi:cx="65.659912"
       sodipodi:cy="91.707115"
       sodipodi:rx="36.36549"
       sodipodi:ry="36.36549"
       d="m 102.0254,91.707115 a 36.36549,36.36549 0 1 1 -1.2e-4,-0.09398"
       sodipodi:start="0"
       sodipodi:end="6.2806011"
       sodipodi:open="true"
       transform="matrix(0,1,-1,0,464.55765,206.9979)" />
    <path
       transform="matrix(0,1,-1,0,464.55765,56.997906)"
       sodipodi:type="arc"
       style="fill:#feff00;fill-opacity:1;stroke:#000000;stroke-opacity:1"
       id="path2985-1-1-6"
       sodipodi:cx="65.659912"
       sodipodi:cy="91.707115"
       sodipodi:rx="36.36549"
       sodipodi:ry="36.36549"
       d="m 102.0254,91.707115 a 36.36549,36.36549 0 1 1 -1.2e-4,-0.09398"
       sodipodi:start="0"
       sodipodi:end="6.2806011"
       sodipodi:open="true" />
    <path
       transform="matrix(0,1,-1,0,614.55768,56.997906)"
       sodipodi:type="arc"
       style="fill:#feff00;fill-opacity:1;stroke:#000000;stroke-opacity:1"
       id="path2985-1-9-8-8"
       sodipodi:cx="65.659912"
       sodipodi:cy="91.707115"
       sodipodi:rx="36.36549"
       sodipodi:ry="36.36549"
       d="m 102.0254,91.707115 a 36.36549,36.36549 0 1 1 -1.2e-4,-0.09398"
       sodipodi:start="0"
       sodipodi:end="6.2806011"
       sodipodi:open="true" />
    <path
       style="fill:none;stroke:#000000;stroke-width:1px;stroke-linecap:butt;stroke-linejoin:miter;stroke-opacity:1"
       d="m 374.35889,159.16617 c 0,77.85714 0,77.85714 0,77.85714"
       id="path3812-6-4"
       inkscape:connector-curvature="0" />
    <path
       style="fill:none;stroke:#000000;stroke-width:1px;stroke-linecap:butt;stroke-linejoin:miter;stroke-opacity:1"
       d="m 409.35889,119.88045 c 76.78572,0 76.78572,0 76.78572,0"
       id="path3818-2-3"
       inkscape:connector-curvature="0" />
    <path
       style="fill:none;stroke:#000000;stroke-width:1px;stroke-linecap:butt;stroke-linejoin:miter;stroke-opacity:1"
       d="m 496.50178,147.7376 c -98.57143,98.57143 -98.21429,98.92857 -98.21429,98.92857"
       id="path3820-8-7"
       inkscape:connector-curvature="0" />
    <path
       style="fill:none;stroke:#000000;stroke-width:1px;stroke-linecap:butt;stroke-linejoin:miter;stroke-opacity:1"
       d="m 374.35903,308.74078 c 0,77.85714 0,77.85714 0,77.85714"
       id="path3812-0-8"
       inkscape:connector-curvature="0" />
    <path
       style="fill:none;stroke:#000000;stroke-width:1px;stroke-linecap:butt;stroke-linejoin:miter;stroke-opacity:1"
       d="M 496.85904,397.20189 C 398.2876,298.63045 398.2876,298.63045 398.2876,298.63045"
       id="path3822-9-1"
       inkscape:connector-curvature="0" />
    <path
       style="fill:none;stroke:#000000;stroke-width:1px;stroke-linecap:butt;stroke-linejoin:miter;stroke-opacity:1"
       d="m 335.51936,420.41604 c -77.14287,0 -77.14287,-0.35715 -77.14287,-0.35715"
       id="path3814-3"
       inkscape:connector-curvature="0" />
    <path
       style="fill:none;stroke:#000000;stroke-width:1px;stroke-linecap:butt;stroke-linejoin:miter;stroke-opacity:1"
       d="m 335.51935,274.52303 c -77.14285,0 -77.14285,-0.35714 -77.14285,-0.35714"
       id="path3814-61"
       inkscape:connector-curvature="0" />
    <path
       style="fill:none;stroke:#000000;stroke-width:1px;stroke-linecap:butt;stroke-linejoin:miter;stroke-opacity:1"
       d="m 346.76951,450.05903 c -98.57143,98.57143 -98.21429,98.92857 -98.21429,98.92857"
       id="path3820-2"
       inkscape:connector-curvature="0" />
    <path
       style="fill:none;stroke:#000000;stroke-width:1px;stroke-linecap:butt;stroke-linejoin:miter;stroke-opacity:1"
       d="m 347.12665,300.23775 c -98.57143,98.57143 -98.21429,98.92857 -98.21429,98.92857"
       id="path3820-0"
       inkscape:connector-curvature="0" />
    <path
       style="fill:none;stroke:#000000;stroke-width:1px;stroke-linecap:butt;stroke-linejoin:miter;stroke-opacity:1"
       d="m 344.62665,147.73745 c -98.57143,98.57143 -98.21429,98.92857 -98.21429,98.92857"
       id="path3820-9"
       inkscape:connector-curvature="0" />
    <path
       style="fill:none;stroke:#000000;stroke-width:1px;stroke-linecap:butt;stroke-linejoin:miter;stroke-opacity:1"
       d="M 345.2956,398.4703 C 246.72418,299.89887 246.72418,299.89887 246.72418,299.89887"
       id="path3822-3"
       inkscape:connector-curvature="0" />
    <path
       sodipodi:type="arc"
       style="fill:#feff00;fill-opacity:1;stroke:#000000;stroke-opacity:1"
       id="path2985-4"
       sodipodi:cx="65.659912"
       sodipodi:cy="91.707115"
       sodipodi:rx="36.36549"
       sodipodi:ry="36.36549"
       d="m 102.0254,91.707115 a 36.36549,36.36549 0 1 1 -1.2e-4,-0.09398"
       sodipodi:start="0"
       sodipodi:end="6.2806011"
       sodipodi:open="true"
       transform="matrix(0,1,-1,0,614.55799,507.53363)" />
    <path
       transform="matrix(0,1,-1,0,614.55799,357.53362)"
       sodipodi:type="arc"
       style="fill:#feff00;fill-opacity:1;stroke:#000000;stroke-opacity:1"
       id="path2985-1-2"
       sodipodi:cx="65.659912"
       sodipodi:cy="91.707115"
       sodipodi:rx="36.36549"
       sodipodi:ry="36.36549"
       d="m 102.0254,91.707115 a 36.36549,36.36549 0 1 1 -1.2e-4,-0.09398"
       sodipodi:start="0"
       sodipodi:end="6.2806011"
       sodipodi:open="true" />
    <path
       sodipodi:type="arc"
       style="fill:#feff00;fill-opacity:1;stroke:#000000;stroke-opacity:1"
       id="path2985-0-5"
       sodipodi:cx="65.659912"
       sodipodi:cy="91.707115"
       sodipodi:rx="36.36549"
       sodipodi:ry="36.36549"
       d="m 102.0254,91.707115 a 36.36549,36.36549 0 1 1 -1.2e-4,-0.09398"
       sodipodi:start="0"
       sodipodi:end="6.2806011"
       sodipodi:open="true"
       transform="matrix(0,1,-1,0,764.55799,507.53363)" />
    <path
       style="fill:none;stroke:#000000;stroke-width:1px;stroke-linecap:butt;stroke-linejoin:miter;stroke-opacity:1"
       d="m 636.85922,575.05903 c -77.14287,0 -77.14287,-0.35715 -77.14287,-0.35715"
       id="path3814-65"
       inkscape:connector-curvature="0" />
    <path
       style="fill:none;stroke:#000000;stroke-width:1px;stroke-linecap:butt;stroke-linejoin:miter;stroke-opacity:1"
       d="M 646.85922,547.55904 C 548.28778,448.9876 548.28778,448.9876 548.28778,448.9876"
       id="path3822-1"
       inkscape:connector-curvature="0" />
    <path
       transform="matrix(0,1,-1,0,614.55798,56.997906)"
       sodipodi:type="arc"
       style="fill:#feff00;fill-opacity:1;stroke:#000000;stroke-opacity:1"
       id="path2985-1-1-2"
       sodipodi:cx="65.659912"
       sodipodi:cy="91.707115"
       sodipodi:rx="36.36549"
       sodipodi:ry="36.36549"
       d="m 102.0254,91.707115 a 36.36549,36.36549 0 1 1 -1.2e-4,-0.09398"
       sodipodi:start="0"
       sodipodi:end="6.2806011"
       sodipodi:open="true" />
    <path
       sodipodi:type="arc"
       style="fill:#feff00;fill-opacity:1;stroke:#000000;stroke-opacity:1"
       id="path2985-0-9-11"
       sodipodi:cx="65.659912"
       sodipodi:cy="91.707115"
       sodipodi:rx="36.36549"
       sodipodi:ry="36.36549"
       d="m 102.0254,91.707115 a 36.36549,36.36549 0 1 1 -1.2e-4,-0.09398"
       sodipodi:start="0"
       sodipodi:end="6.2806011"
       sodipodi:open="true"
       transform="matrix(0,1,-1,0,764.55799,206.9979)" />
    <path
       transform="matrix(0,1,-1,0,764.55799,56.997906)"
       sodipodi:type="arc"
       style="fill:#feff00;fill-opacity:1;stroke:#000000;stroke-opacity:1"
       id="path2985-1-9-8-9"
       sodipodi:cx="65.659912"
       sodipodi:cy="91.707115"
       sodipodi:rx="36.36549"
       sodipodi:ry="36.36549"
       d="m 102.0254,91.707115 a 36.36549,36.36549 0 1 1 -1.2e-4,-0.09398"
       sodipodi:start="0"
       sodipodi:end="6.2806011"
       sodipodi:open="true" />
    <path
       style="fill:none;stroke:#000000;stroke-width:1px;stroke-linecap:butt;stroke-linejoin:miter;stroke-opacity:1"
       d="m 674.71636,159.88045 c 0,76.78572 0.35714,76.78572 0.35714,76.78572"
       id="path3816-0-2"
       inkscape:connector-curvature="0" />
    <path
       style="fill:none;stroke:#000000;stroke-width:1px;stroke-linecap:butt;stroke-linejoin:miter;stroke-opacity:1"
       d="m 559.35923,119.88045 c 76.7857,0 76.7857,0 76.7857,0"
       id="path3818-2-9"
       inkscape:connector-curvature="0" />
    <path
       style="fill:none;stroke:#000000;stroke-width:1px;stroke-linecap:butt;stroke-linejoin:miter;stroke-opacity:1"
       d="M 646.85922,247.02331 C 548.28778,148.45187 548.28778,148.45187 548.28778,148.45187"
       id="path3822-6-2"
       inkscape:connector-curvature="0" />
    <path
       style="fill:none;stroke:#000000;stroke-width:1px;stroke-linecap:butt;stroke-linejoin:miter;stroke-opacity:1"
       d="m 646.50235,299.52332 c -98.57144,98.57143 -98.2143,98.92857 -98.2143,98.92857"
       id="path3820-4-3"
       inkscape:connector-curvature="0" />
    <path
       sodipodi:type="arc"
       style="fill:#feff00;fill-opacity:1;stroke:#000000;stroke-opacity:1"
       id="path2985-00-1"
       sodipodi:cx="65.659912"
       sodipodi:cy="91.707115"
       sodipodi:rx="36.36549"
       sodipodi:ry="36.36549"
       d="m 102.0254,91.707115 a 36.36549,36.36549 0 1 1 -1.2e-4,-0.09398"
       sodipodi:start="0"
       sodipodi:end="6.2806011"
       sodipodi:open="true"
       transform="matrix(0,1,-1,0,916.61166,507.53363)" />
    <path
       sodipodi:type="arc"
       style="fill:#feff00;fill-opacity:1;stroke:#000000;stroke-opacity:1"
       id="path2985-0-1-1"
       sodipodi:cx="65.659912"
       sodipodi:cy="91.707115"
       sodipodi:rx="36.36549"
       sodipodi:ry="36.36549"
       d="m 102.0254,91.707115 a 36.36549,36.36549 0 1 1 -1.2e-4,-0.09398"
       sodipodi:start="0"
       sodipodi:end="6.2806011"
       sodipodi:open="true"
       transform="matrix(0,1,-1,0,1066.6117,507.53363)" />
    <path
       transform="matrix(0,1,-1,0,1066.6117,357.53362)"
       sodipodi:type="arc"
       style="fill:#feff00;fill-opacity:1;stroke:#000000;stroke-opacity:1"
       id="path2985-1-9-3-9"
       sodipodi:cx="65.659912"
       sodipodi:cy="91.707115"
       sodipodi:rx="36.36549"
       sodipodi:ry="36.36549"
       d="m 102.0254,91.707115 a 36.36549,36.36549 0 1 1 -1.2e-4,-0.09398"
       sodipodi:start="0"
       sodipodi:end="6.2806011"
       sodipodi:open="true" />
    <path
       style="fill:none;stroke:#000000;stroke-width:1px;stroke-linecap:butt;stroke-linejoin:miter;stroke-opacity:1"
       d="m 938.9129,575.05904 c -77.14287,0 -77.14287,-0.35715 -77.14287,-0.35715"
       id="path3814-9-3"
       inkscape:connector-curvature="0" />
    <path
       style="fill:none;stroke:#000000;stroke-width:1px;stroke-linecap:butt;stroke-linejoin:miter;stroke-opacity:1"
       d="m 976.77004,460.41617 c 0,76.78572 0.35714,76.78572 0.35714,76.78572"
       id="path3816-3-2"
       inkscape:connector-curvature="0" />
    <path
       style="fill:none;stroke:#000000;stroke-width:1px;stroke-linecap:butt;stroke-linejoin:miter;stroke-opacity:1"
       d="m 948.55578,448.63046 c -98.57143,98.57143 -98.21429,98.92857 -98.21429,98.92857"
       id="path3820-46-2"
       inkscape:connector-curvature="0" />
    <path
       transform="matrix(0,1,-1,0,916.61165,56.997906)"
       sodipodi:type="arc"
       style="fill:#feff00;fill-opacity:1;stroke:#000000;stroke-opacity:1"
       id="path2985-1-1-6-6"
       sodipodi:cx="65.659912"
       sodipodi:cy="91.707115"
       sodipodi:rx="36.36549"
       sodipodi:ry="36.36549"
       d="m 102.0254,91.707115 a 36.36549,36.36549 0 1 1 -1.2e-4,-0.09398"
       sodipodi:start="0"
       sodipodi:end="6.2806011"
       sodipodi:open="true" />
    <path
       sodipodi:type="arc"
       style="fill:#feff00;fill-opacity:1;stroke:#000000;stroke-opacity:1"
       id="path2985-0-9-1-7"
       sodipodi:cx="65.659912"
       sodipodi:cy="91.707115"
       sodipodi:rx="36.36549"
       sodipodi:ry="36.36549"
       d="m 102.0254,91.707115 a 36.36549,36.36549 0 1 1 -1.2e-4,-0.09398"
       sodipodi:start="0"
       sodipodi:end="6.2806011"
       sodipodi:open="true"
       transform="matrix(0,1,-1,0,1066.6117,206.9979)" />
    <path
       style="fill:none;stroke:#000000;stroke-width:1px;stroke-linecap:butt;stroke-linejoin:miter;stroke-opacity:1"
       d="M 948.9129,247.02331 C 850.34147,148.45188 850.34147,148.45188 850.34147,148.45188"
       id="path3822-6-8-9"
       inkscape:connector-curvature="0" />
    <path
       style="fill:none;stroke:#000000;stroke-width:1px;stroke-linecap:butt;stroke-linejoin:miter;stroke-opacity:1"
       d="m 977.12704,309.34475 c 0,77.85714 0,77.85714 0,77.85714"
       id="path3812-0-2-2-9"
       inkscape:connector-curvature="0" />
    <path
       style="fill:none;stroke:#000000;stroke-width:1px;stroke-linecap:butt;stroke-linejoin:miter;stroke-opacity:1"
       d="m 787.57352,575.05903 c -77.14287,0 -77.14287,-0.35715 -77.14287,-0.35715"
       id="path3814-6-5"
       inkscape:connector-curvature="0" />
    <path
       style="fill:none;stroke:#000000;stroke-width:1px;stroke-linecap:butt;stroke-linejoin:miter;stroke-opacity:1"
       d="m 787.57336,119.88002 c -77.14286,0 -77.14286,-0.35714 -77.14286,-0.35714"
       id="path3814-54-9"
       inkscape:connector-curvature="0" />
    <path
       style="fill:none;stroke:#000000;stroke-width:1px;stroke-linecap:butt;stroke-linejoin:miter;stroke-opacity:1"
       d="m 796.68066,147.73745 c -98.57143,98.57143 -98.21429,98.92857 -98.21429,98.92857"
       id="path3820-9-5"
       inkscape:connector-curvature="0" />
  </g>
</svg>
